# xmcd
#
# Track frame offsets:
#	150
#	6987
#	35432
#	52685
#	64560
#	95622
#	112610
#	129525
#	152250
#	167530
#	189560
#	201077
#
# Disc length: 3149 seconds
#
# Revision: 1
# Processed by: cddbd v1.4PL0 Copyright (c) Steve Scherf et al.
# Submitted via: audiograbber 1.81.03
#
DISCID=880c4b0c
DTITLE=Various Artist - From The Heart
DYEAR=2000
DGENRE=Blues
TTITLE0=Dee Dee and Barbara Ramone - Hop Around
TTITLE1=Freebo - The Big Chain
TTITLE2=Greg  Kihn - Subterranean Homesick Blues
TTITLE3=John Brannen - Fireball
TTITLE4=Julian Sas - For The Lost And Found
TTITLE5=Gavin Suterland - Water And Ice
TTITLE6=John Brannen  - Scarecrow
TTITLE7=Freebo - How Do I Say Goodbye
TTITLE8=Gavin Sutherland - Go The Distance
TTITLE9=Julian Sas - Goin' Down
TTITLE10=Dee Dee Ramone - Born To Lose
TTITLE11=Greg Kihn - Christmas Song
EXTD=
EXTT0=
EXTT1=
EXTT2=
EXTT3=
EXTT4=
EXTT5=
EXTT6=
EXTT7=
EXTT8=
EXTT9=
EXTT10=
EXTT11=
PLAYORDER=
